<?xml version="1.0" encoding="UTF-8" standalone="no"?>
<svg
   xmlns:dc="http://purl.org/dc/elements/1.1/"
   xmlns:cc="http://creativecommons.org/ns#"
   xmlns:rdf="http://www.w3.org/1999/02/22-rdf-syntax-ns#"
   xmlns:svg="http://www.w3.org/2000/svg"
   xmlns="http://www.w3.org/2000/svg"
   width="230.90341mm"
   height="58.634701mm"
   viewBox="0 0 818.16169 207.76075"
   id="svg4233"
   version="1.1">
  <defs
     id="defs4235" />
  <metadata
     id="metadata4238">
    <rdf:RDF>
      <cc:Work
         rdf:about="">
        <dc:format>image/svg+xml</dc:format>
        <dc:type
           rdf:resource="http://purl.org/dc/dcmitype/StillImage" />
        <dc:title></dc:title>
      </cc:Work>
    </rdf:RDF>
  </metadata>
  <g
     id="layer1"
     transform="translate(-114.80648,-603.75167)">
    <text
       xml:space="preserve"
       style="font-size:37.50000000000000000px;line-height:1.25;font-family:'Open Sans';-inkscape-font-specification:'Open Sans';stroke-width:0.9375;fill:#16a085;fill-opacity:1;"
       x="324.11142"
       y="741.89294"
       id="text311"><tspan
         id="tspan309"
         x="324.11142"
         y="741.89294"
         style="stroke-width:0.9375;fill:#16a085;fill-opacity:1;" /></text>
    <path
       d="m 197.16392,742.15401 h -20.85938 q 0.0391,3.63282 1.44532,6.40625 1.44531,2.77344 3.78906,4.17969 2.38281,1.40625 5.23437,1.40625 1.91407,0 3.47657,-0.42969 1.60156,-0.46875 3.08593,-1.40625 1.48438,-0.97656 2.73438,-2.07031 1.25,-1.09375 3.24219,-2.96875 0.82031,-0.70312 2.34375,-0.70312 1.64062,0 2.65625,0.89843 1.01562,0.89844 1.01562,2.53907 0,1.44531 -1.13281,3.39843 -1.13281,1.91407 -3.4375,3.71094 -2.26563,1.75781 -5.74219,2.92969 -3.4375,1.17187 -7.92969,1.17187 -10.27343,0 -15.97656,-5.85937 -5.70312,-5.85938 -5.70312,-15.89844 0,-4.72656 1.40625,-8.75 1.40625,-4.0625 4.10156,-6.95312 2.69531,-2.89063 6.64062,-4.41407 3.94532,-1.5625 8.75,-1.5625 6.25,0 10.70313,2.65625 4.49219,2.61719 6.71875,6.79688 2.22656,4.17969 2.22656,8.51562 0,4.02344 -2.30469,5.23438 -2.30468,1.17187 -6.48437,1.17187 z m -20.85938,-6.05468 h 19.33594 q -0.39062,-5.46875 -2.96875,-8.16407 -2.53906,-2.73437 -6.71875,-2.73437 -3.98437,0 -6.5625,2.77344 -2.53906,2.73437 -3.08594,8.125 z"
       style="font-style:normal;font-variant:normal;font-weight:normal;font-stretch:normal;font-size:80px;line-height:150%;font-family:'Arial Rounded MT Bold';-inkscape-font-specification:'Arial Rounded MT Bold, Normal';text-align:start;letter-spacing:3.27000000000000002px;word-spacing:75px;writing-mode:lr-tb;text-anchor:start;fill:#16a085;fill-opacity:1;stroke:none;stroke-width:1px;stroke-linecap:butt;stroke-linejoin:miter;stroke-opacity:1"
       id="path32" />
    <path
       d="m 245.12142,755.20089 q -3.86719,3.00781 -7.5,4.53125 -3.59375,1.48437 -8.08594,1.48437 -4.10156,0 -7.22656,-1.60156 -3.08594,-1.64062 -4.76563,-4.41406 -1.67968,-2.77344 -1.67968,-6.01563 0,-4.375 2.77343,-7.46093 2.77344,-3.08594 7.61719,-4.14063 1.01563,-0.23437 5.03906,-1.05469 4.02344,-0.82031 6.875,-1.48437 2.89063,-0.70313 6.25,-1.67969 -0.19531,-4.21875 -1.71875,-6.17187 -1.48437,-1.99219 -6.21093,-1.99219 -4.0625,0 -6.13282,1.13281 -2.03125,1.13281 -3.51562,3.39844 -1.44531,2.26562 -2.07031,3.00781 -0.58594,0.70313 -2.57813,0.70313 -1.79687,0 -3.125,-1.13282 -1.28906,-1.17187 -1.28906,-2.96875 0,-2.8125 1.99219,-5.46875 1.99218,-2.65625 6.21093,-4.375 4.21875,-1.71875 10.50782,-1.71875 7.03125,0 11.05468,1.67969 4.02344,1.64063 5.66407,5.23438 1.67968,3.59375 1.67968,9.53125 0,3.75 -0.0391,6.36718 0,2.61719 -0.0391,5.82032 0,3.00781 0.97656,6.28906 1.01563,3.24219 1.01563,4.17969 0,1.64062 -1.5625,3.00781 -1.52344,1.32812 -3.47657,1.32812 -1.64062,0 -3.24218,-1.52343 -1.60157,-1.5625 -3.39844,-4.49219 z m -0.70313,-15.42969 q -2.34375,0.85938 -6.83593,1.83594 -4.45313,0.9375 -6.17188,1.40625 -1.71875,0.42969 -3.28125,1.75781 -1.5625,1.28906 -1.5625,3.63281 0,2.42188 1.83594,4.14063 1.83594,1.67969 4.80469,1.67969 3.16406,0 5.82031,-1.36719 2.69531,-1.40625 3.94531,-3.59375 1.44531,-2.42188 1.44531,-7.96875 z"
       style="font-style:normal;font-variant:normal;font-weight:normal;font-stretch:normal;font-size:80px;line-height:150%;font-family:'Arial Rounded MT Bold';-inkscape-font-specification:'Arial Rounded MT Bold, Normal';text-align:start;letter-spacing:3.27000000000000002px;word-spacing:75px;writing-mode:lr-tb;text-anchor:start;fill:#16a085;fill-opacity:1;stroke:none;stroke-width:1px;stroke-linecap:butt;stroke-linejoin:miter;stroke-opacity:1"
       id="path34" />
    <path
       d="m 303.27423,747.2712 q 0,4.41406 -2.14844,7.57813 -2.14843,3.125 -6.36718,4.76562 -4.17969,1.60156 -10.19532,1.60156 -5.74218,0 -9.84375,-1.75781 -4.10156,-1.75781 -6.05468,-4.375 -1.95313,-2.65625 -1.95313,-5.3125 0,-1.75781 1.25,-3.00781 1.25,-1.25 3.16406,-1.25 1.67969,0 2.57813,0.82031 0.89844,0.82031 1.71875,2.30469 1.64062,2.85156 3.90625,4.25781 2.30469,1.40625 6.25,1.40625 3.20312,0 5.23437,-1.40625 2.07032,-1.44531 2.07032,-3.28125 0,-2.8125 -2.14844,-4.10156 -2.10938,-1.28906 -6.99219,-2.46094 -5.50781,-1.36719 -8.98437,-2.85156 -3.4375,-1.52344 -5.50782,-3.98438 -2.07031,-2.46093 -2.07031,-6.05468 0,-3.20313 1.91406,-6.05469 1.91407,-2.85156 5.625,-4.53125 3.75,-1.71875 9.02344,-1.71875 4.14063,0 7.42188,0.85937 3.32031,0.85938 5.50781,2.30469 2.22656,1.44531 3.35937,3.20313 1.17188,1.75781 1.17188,3.4375 0,1.83593 -1.25,3.00781 -1.21094,1.17187 -3.47656,1.17187 -1.64063,0 -2.8125,-0.9375 -1.13282,-0.9375 -2.61719,-2.8125 -1.21094,-1.5625 -2.85156,-2.5 -1.64063,-0.9375 -4.45313,-0.9375 -2.89062,0 -4.80469,1.25 -1.91406,1.21094 -1.91406,3.04688 0,1.67969 1.40625,2.77344 1.40625,1.05468 3.78906,1.75781 2.38282,0.70312 6.5625,1.71875 4.96094,1.21094 8.08594,2.89062 3.16406,1.67969 4.76563,3.98438 1.64062,2.26562 1.64062,5.19531 z"
       style="font-style:normal;font-variant:normal;font-weight:normal;font-stretch:normal;font-size:80px;line-height:150%;font-family:'Arial Rounded MT Bold';-inkscape-font-specification:'Arial Rounded MT Bold, Normal';text-align:start;letter-spacing:3.27000000000000002px;word-spacing:75px;writing-mode:lr-tb;text-anchor:start;fill:#16a085;fill-opacity:1;stroke:none;stroke-width:1px;stroke-linecap:butt;stroke-linejoin:miter;stroke-opacity:1"
       id="path36" />
    <path
       d="m 316.23173,718.79464 h 1.17187 v -6.40625 q 0,-2.57813 0.11719,-4.02344 0.15625,-1.48437 0.78125,-2.53906 0.625,-1.09375 1.79688,-1.75781 1.17187,-0.70313 2.61718,-0.70313 2.03125,0 3.67188,1.52344 1.09375,1.01562 1.36719,2.5 0.3125,1.44531 0.3125,4.14062 v 7.26563 h 3.90625 q 2.26562,0 3.4375,1.09375 1.21093,1.05469 1.21093,2.73437 0,2.14844 -1.71875,3.00782 -1.67968,0.85937 -4.84375,0.85937 h -1.99218 v 19.60938 q 0,2.5 0.15625,3.86718 0.19531,1.32813 0.9375,2.1875 0.78125,0.82032 2.5,0.82032 0.9375,0 2.53906,-0.3125 1.60156,-0.35157 2.5,-0.35157 1.28906,0 2.30469,1.05469 1.05468,1.01563 1.05468,2.53906 0,2.57813 -2.8125,3.94532 -2.8125,1.36718 -8.08593,1.36718 -5,0 -7.57813,-1.67968 -2.57812,-1.67969 -3.39844,-4.64844 -0.78125,-2.96875 -0.78125,-7.92969 v -20.46875 h -1.40625 q -2.30468,0 -3.51562,-1.09375 -1.21094,-1.09375 -1.21094,-2.77344 0,-1.67968 1.25,-2.73437 1.28906,-1.09375 3.71094,-1.09375 z"
       style="font-style:normal;font-variant:normal;font-weight:normal;font-stretch:normal;font-size:80px;line-height:150%;font-family:'Arial Rounded MT Bold';-inkscape-font-specification:'Arial Rounded MT Bold, Normal';text-align:start;letter-spacing:3.27000000000000002px;word-spacing:75px;writing-mode:lr-tb;text-anchor:start;fill:#16a085;fill-opacity:1;stroke:none;stroke-width:1px;stroke-linecap:butt;stroke-linejoin:miter;stroke-opacity:1"
       id="path38" />
    <path
       d="m 386.41579,725.66964 v 30.97656 q 0,5.3125 -1.13281,9.14063 -1.13281,3.82812 -3.63281,6.32812 -2.5,2.5 -6.5625,3.71094 -4.02344,1.21094 -10.03906,1.21094 -5.50782,0 -9.84375,-1.5625 -4.33594,-1.52344 -6.67969,-3.98438 -2.34375,-2.42187 -2.34375,-5 0,-1.95312 1.32812,-3.20312 1.32813,-1.21094 3.20313,-1.21094 2.34375,0 4.10156,2.07031 0.85938,1.05469 1.75781,2.10938 0.9375,1.09375 2.03125,1.83593 1.13282,0.78125 2.69532,1.13282 1.5625,0.39062 3.59375,0.39062 4.14062,0 6.40625,-1.17187 2.30468,-1.13282 3.20312,-3.20313 0.9375,-2.07031 1.09375,-4.45312 0.15625,-2.34375 0.23438,-7.57813 -2.46094,3.4375 -5.70313,5.23438 -3.20312,1.79687 -7.65625,1.79687 -5.35156,0 -9.375,-2.73437 -3.98437,-2.73438 -6.13281,-7.65625 -2.14844,-4.92188 -2.14844,-11.36719 0,-4.80469 1.28906,-8.67188 1.32813,-3.86718 3.75,-6.52343 2.42188,-2.65625 5.58594,-3.98438 3.16406,-1.36719 6.95313,-1.36719 4.53125,0 7.85156,1.75782 3.32031,1.71875 6.17187,5.42968 v -1.44531 q 0,-2.77344 1.36719,-4.29687 1.36719,-1.52344 3.51563,-1.52344 3.08593,0 4.10156,2.03125 1.01562,1.99219 1.01562,5.78125 z m -30.89843,13.51562 q 0,6.48438 2.8125,9.80469 2.85156,3.32031 7.34375,3.32031 2.65625,0 5,-1.40625 2.38281,-1.44531 3.86718,-4.29687 1.48438,-2.89063 1.48438,-6.99219 0,-6.52344 -2.89063,-10.15625 -2.85156,-3.63281 -7.53906,-3.63281 -4.57031,0 -7.34375,3.47656 -2.73437,3.47656 -2.73437,9.88281 z"
       style="font-style:normal;font-variant:normal;font-weight:normal;font-stretch:normal;font-size:80px;line-height:150%;font-family:'Arial Rounded MT Bold';-inkscape-font-specification:'Arial Rounded MT Bold, Normal';text-align:start;letter-spacing:3.27000000000000002px;word-spacing:75px;writing-mode:lr-tb;text-anchor:start;fill:#16a085;fill-opacity:1;stroke:none;stroke-width:1px;stroke-linecap:butt;stroke-linejoin:miter;stroke-opacity:1"
       id="path40" />
    <path
       d="m 425.48658,755.20089 q -3.86719,3.00781 -7.5,4.53125 -3.59375,1.48437 -8.08594,1.48437 -4.10156,0 -7.22656,-1.60156 -3.08594,-1.64062 -4.76562,-4.41406 -1.67969,-2.77344 -1.67969,-6.01563 0,-4.375 2.77344,-7.46093 2.77343,-3.08594 7.61718,-4.14063 1.01563,-0.23437 5.03907,-1.05469 4.02343,-0.82031 6.875,-1.48437 2.89062,-0.70313 6.25,-1.67969 -0.19532,-4.21875 -1.71875,-6.17187 -1.48438,-1.99219 -6.21094,-1.99219 -4.0625,0 -6.13281,1.13281 -2.03125,1.13281 -3.51563,3.39844 -1.44531,2.26562 -2.07031,3.00781 -0.58594,0.70313 -2.57813,0.70313 -1.79687,0 -3.125,-1.13282 -1.28906,-1.17187 -1.28906,-2.96875 0,-2.8125 1.99219,-5.46875 1.99219,-2.65625 6.21094,-4.375 4.21875,-1.71875 10.50781,-1.71875 7.03125,0 11.05469,1.67969 4.02343,1.64063 5.66406,5.23438 1.67969,3.59375 1.67969,9.53125 0,3.75 -0.0391,6.36718 0,2.61719 -0.0391,5.82032 0,3.00781 0.97656,6.28906 1.01563,3.24219 1.01563,4.17969 0,1.64062 -1.5625,3.00781 -1.52344,1.32812 -3.47656,1.32812 -1.64063,0 -3.24219,-1.52343 -1.60156,-1.5625 -3.39844,-4.49219 z m -0.70312,-15.42969 q -2.34375,0.85938 -6.83594,1.83594 -4.45313,0.9375 -6.17188,1.40625 -1.71875,0.42969 -3.28125,1.75781 -1.5625,1.28906 -1.5625,3.63281 0,2.42188 1.83594,4.14063 1.83594,1.67969 4.80469,1.67969 3.16406,0 5.82031,-1.36719 2.69531,-1.40625 3.94531,-3.59375 1.44532,-2.42188 1.44532,-7.96875 z"
       style="font-style:normal;font-variant:normal;font-weight:normal;font-stretch:normal;font-size:80px;line-height:150%;font-family:'Arial Rounded MT Bold';-inkscape-font-specification:'Arial Rounded MT Bold, Normal';text-align:start;letter-spacing:3.27000000000000002px;word-spacing:75px;writing-mode:lr-tb;text-anchor:start;fill:#16a085;fill-opacity:1;stroke:none;stroke-width:1px;stroke-linecap:butt;stroke-linejoin:miter;stroke-opacity:1"
       id="path42" />
    <path
       d="m 447.85813,718.79464 h 1.17188 v -6.40625 q 0,-2.57813 0.11718,-4.02344 0.15625,-1.48437 0.78125,-2.53906 0.625,-1.09375 1.79688,-1.75781 1.17187,-0.70313 2.61719,-0.70313 2.03125,0 3.67187,1.52344 1.09375,1.01562 1.36719,2.5 0.3125,1.44531 0.3125,4.14062 v 7.26563 h 3.90625 q 2.26562,0 3.4375,1.09375 1.21094,1.05469 1.21094,2.73437 0,2.14844 -1.71875,3.00782 -1.67969,0.85937 -4.84375,0.85937 h -1.99219 v 19.60938 q 0,2.5 0.15625,3.86718 0.19531,1.32813 0.9375,2.1875 0.78125,0.82032 2.5,0.82032 0.9375,0 2.53906,-0.3125 1.60156,-0.35157 2.5,-0.35157 1.28906,0 2.30469,1.05469 1.05469,1.01563 1.05469,2.53906 0,2.57813 -2.8125,3.94532 -2.8125,1.36718 -8.08594,1.36718 -5,0 -7.57813,-1.67968 -2.57812,-1.67969 -3.39843,-4.64844 -0.78125,-2.96875 -0.78125,-7.92969 v -20.46875 h -1.40625 q -2.30469,0 -3.51563,-1.09375 -1.21094,-1.09375 -1.21094,-2.77344 0,-1.67968 1.25,-2.73437 1.28907,-1.09375 3.71094,-1.09375 z"
       style="font-style:normal;font-variant:normal;font-weight:normal;font-stretch:normal;font-size:80px;line-height:150%;font-family:'Arial Rounded MT Bold';-inkscape-font-specification:'Arial Rounded MT Bold, Normal';text-align:start;letter-spacing:3.27000000000000002px;word-spacing:75px;writing-mode:lr-tb;text-anchor:start;fill:#16a085;fill-opacity:1;stroke:none;stroke-width:1px;stroke-linecap:butt;stroke-linejoin:miter;stroke-opacity:1"
       id="path44" />
    <path
       d="m 508.64768,742.15401 h -20.85937 q 0.0391,3.63282 1.44531,6.40625 1.44531,2.77344 3.78906,4.17969 2.38281,1.40625 5.23438,1.40625 1.91406,0 3.47656,-0.42969 1.60156,-0.46875 3.08594,-1.40625 1.48437,-0.97656 2.73437,-2.07031 1.25,-1.09375 3.24219,-2.96875 0.82031,-0.70312 2.34375,-0.70312 1.64062,0 2.65625,0.89843 1.01562,0.89844 1.01562,2.53907 0,1.44531 -1.13281,3.39843 -1.13281,1.91407 -3.4375,3.71094 -2.26562,1.75781 -5.74219,2.92969 -3.4375,1.17187 -7.92968,1.17187 -10.27344,0 -15.97657,-5.85937 -5.70312,-5.85938 -5.70312,-15.89844 0,-4.72656 1.40625,-8.75 1.40625,-4.0625 4.10156,-6.95312 2.69531,-2.89063 6.64063,-4.41407 3.94531,-1.5625 8.75,-1.5625 6.25,0 10.70312,2.65625 4.49219,2.61719 6.71875,6.79688 2.22656,4.17969 2.22656,8.51562 0,4.02344 -2.30468,5.23438 -2.30469,1.17187 -6.48438,1.17187 z m -20.85937,-6.05468 h 19.33593 q -0.39062,-5.46875 -2.96875,-8.16407 -2.53906,-2.73437 -6.71875,-2.73437 -3.98437,0 -6.5625,2.77344 -2.53906,2.73437 -3.08593,8.125 z"
       style="font-style:normal;font-variant:normal;font-weight:normal;font-stretch:normal;font-size:80px;line-height:150%;font-family:'Arial Rounded MT Bold';-inkscape-font-specification:'Arial Rounded MT Bold, Normal';text-align:start;letter-spacing:3.27000000000000002px;word-spacing:75px;writing-mode:lr-tb;text-anchor:start;fill:#16a085;fill-opacity:1;stroke:none;stroke-width:1px;stroke-linecap:butt;stroke-linejoin:miter;stroke-opacity:1"
       id="path46" />
    <path
       d="m 657.14079,755.12276 v -1.05468 q -2.14844,2.46093 -4.25782,4.02343 -2.07031,1.52344 -4.53125,2.30469 -2.42187,0.82031 -5.3125,0.82031 -3.82812,0 -7.10937,-1.60156 -3.24219,-1.64062 -5.625,-4.64844 -2.38281,-3.00781 -3.63281,-7.07031 -1.21094,-4.0625 -1.21094,-8.78906 0,-10 4.88281,-15.58594 4.88281,-5.58594 12.85156,-5.58594 4.60938,0 7.77344,1.60157 3.16406,1.5625 6.17188,4.84375 v -15.74219 q 0,-3.28125 1.28906,-4.96094 1.32812,-1.67969 3.75,-1.67969 2.42187,0 3.71094,1.5625 1.32812,1.52344 1.32812,4.53125 v 47.03125 q 0,3.04688 -1.40625,4.57032 -1.40625,1.52343 -3.63281,1.52343 -2.1875,0 -3.63281,-1.5625 -1.40625,-1.60156 -1.40625,-4.53125 z M 636.16422,739.4587 q 0,4.33594 1.32813,7.38281 1.36719,3.04688 3.71094,4.60938 2.34375,1.52344 5.11718,1.52344 2.8125,0 5.11719,-1.44532 2.34375,-1.48437 3.71094,-4.49218 1.40625,-3.04688 1.40625,-7.57813 0,-4.25781 -1.40625,-7.30469 -1.36719,-3.08593 -3.75,-4.6875 -2.34375,-1.64062 -5.15625,-1.64062 -2.92969,0 -5.23438,1.67969 -2.30468,1.64062 -3.59375,4.76562 -1.25,3.08594 -1.25,7.1875 z"
       style="font-style:normal;font-variant:normal;font-weight:normal;font-stretch:normal;font-size:80px;line-height:150%;font-family:'Arial Rounded MT Bold';-inkscape-font-specification:'Arial Rounded MT Bold, Normal';text-align:start;letter-spacing:3.27000000000000002px;word-spacing:75px;writing-mode:lr-tb;text-anchor:start;fill:#16a085;fill-opacity:1;stroke:none;stroke-width:1px;stroke-linecap:butt;stroke-linejoin:miter;stroke-opacity:1"
       id="path48" />
    <path
       d="m 691.85612,723.91183 v 30.82031 q 0,3.20312 -1.52344,4.84375 -1.52344,1.64062 -3.86719,1.64062 -2.34375,0 -3.82812,-1.67968 -1.44532,-1.67969 -1.44532,-4.80469 v -30.50781 q 0,-3.16407 1.44532,-4.76563 1.48437,-1.60156 3.82812,-1.60156 2.34375,0 3.86719,1.60156 1.52344,1.60156 1.52344,4.45313 z m -5.27344,-11.01563 q -2.22656,0 -3.82813,-1.36719 -1.5625,-1.36718 -1.5625,-3.86718 0,-2.26563 1.60157,-3.71094 1.64062,-1.48438 3.78906,-1.48438 2.07031,0 3.67187,1.32813 1.60157,1.32812 1.60157,3.86719 0,2.46093 -1.5625,3.86718 -1.5625,1.36719 -3.71094,1.36719 z"
       style="font-style:normal;font-variant:normal;font-weight:normal;font-stretch:normal;font-size:80px;line-height:150%;font-family:'Arial Rounded MT Bold';-inkscape-font-specification:'Arial Rounded MT Bold, Normal';text-align:start;letter-spacing:3.27000000000000002px;word-spacing:75px;writing-mode:lr-tb;text-anchor:start;fill:#16a085;fill-opacity:1;stroke:none;stroke-width:1px;stroke-linecap:butt;stroke-linejoin:miter;stroke-opacity:1"
       id="path50" />
    <path
       d="m 745.39951,725.66964 v 30.97656 q 0,5.3125 -1.13281,9.14063 -1.13281,3.82812 -3.63281,6.32812 -2.5,2.5 -6.5625,3.71094 -4.02344,1.21094 -10.03906,1.21094 -5.50782,0 -9.84375,-1.5625 -4.33594,-1.52344 -6.67969,-3.98438 -2.34375,-2.42187 -2.34375,-5 0,-1.95312 1.32812,-3.20312 1.32813,-1.21094 3.20313,-1.21094 2.34375,0 4.10156,2.07031 0.85938,1.05469 1.75781,2.10938 0.9375,1.09375 2.03125,1.83593 1.13282,0.78125 2.69532,1.13282 1.5625,0.39062 3.59375,0.39062 4.14062,0 6.40625,-1.17187 2.30468,-1.13282 3.20312,-3.20313 0.9375,-2.07031 1.09375,-4.45312 0.15625,-2.34375 0.23438,-7.57813 -2.46094,3.4375 -5.70313,5.23438 -3.20312,1.79687 -7.65625,1.79687 -5.35156,0 -9.375,-2.73437 -3.98437,-2.73438 -6.13281,-7.65625 -2.14844,-4.92188 -2.14844,-11.36719 0,-4.80469 1.28906,-8.67188 1.32813,-3.86718 3.75,-6.52343 2.42188,-2.65625 5.58594,-3.98438 3.16406,-1.36719 6.95313,-1.36719 4.53125,0 7.85156,1.75782 3.32031,1.71875 6.17187,5.42968 v -1.44531 q 0,-2.77344 1.36719,-4.29687 1.36719,-1.52344 3.51563,-1.52344 3.08593,0 4.10156,2.03125 1.01562,1.99219 1.01562,5.78125 z m -30.89843,13.51562 q 0,6.48438 2.8125,9.80469 2.85156,3.32031 7.34375,3.32031 2.65625,0 5,-1.40625 2.38281,-1.44531 3.86718,-4.29687 1.48438,-2.89063 1.48438,-6.99219 0,-6.52344 -2.89063,-10.15625 -2.85156,-3.63281 -7.53906,-3.63281 -4.57031,0 -7.34375,3.47656 -2.73437,3.47656 -2.73437,9.88281 z"
       style="font-style:normal;font-variant:normal;font-weight:normal;font-stretch:normal;font-size:80px;line-height:150%;font-family:'Arial Rounded MT Bold';-inkscape-font-specification:'Arial Rounded MT Bold, Normal';text-align:start;letter-spacing:3.27000000000000002px;word-spacing:75px;writing-mode:lr-tb;text-anchor:start;fill:#16a085;fill-opacity:1;stroke:none;stroke-width:1px;stroke-linecap:butt;stroke-linejoin:miter;stroke-opacity:1"
       id="path52" />
    <path
       d="m 770.11485,723.91183 v 30.82031 q 0,3.20312 -1.52344,4.84375 -1.52344,1.64062 -3.86719,1.64062 -2.34375,0 -3.82812,-1.67968 -1.44532,-1.67969 -1.44532,-4.80469 v -30.50781 q 0,-3.16407 1.44532,-4.76563 1.48437,-1.60156 3.82812,-1.60156 2.34375,0 3.86719,1.60156 1.52344,1.60156 1.52344,4.45313 z m -5.27344,-11.01563 q -2.22656,0 -3.82813,-1.36719 -1.5625,-1.36718 -1.5625,-3.86718 0,-2.26563 1.60157,-3.71094 1.64062,-1.48438 3.78906,-1.48438 2.07031,0 3.67187,1.32813 1.60157,1.32812 1.60157,3.86719 0,2.46093 -1.5625,3.86718 -1.5625,1.36719 -3.71094,1.36719 z"
       style="font-style:normal;font-variant:normal;font-weight:normal;font-stretch:normal;font-size:80px;line-height:150%;font-family:'Arial Rounded MT Bold';-inkscape-font-specification:'Arial Rounded MT Bold, Normal';text-align:start;letter-spacing:3.27000000000000002px;word-spacing:75px;writing-mode:lr-tb;text-anchor:start;fill:#16a085;fill-opacity:1;stroke:none;stroke-width:1px;stroke-linecap:butt;stroke-linejoin:miter;stroke-opacity:1"
       id="path54" />
    <path
       d="m 785.02549,718.79464 h 1.17187 v -6.40625 q 0,-2.57813 0.11719,-4.02344 0.15625,-1.48437 0.78125,-2.53906 0.625,-1.09375 1.79688,-1.75781 1.17187,-0.70313 2.61718,-0.70313 2.03125,0 3.67188,1.52344 1.09375,1.01562 1.36719,2.5 0.3125,1.44531 0.3125,4.14062 v 7.26563 h 3.90625 q 2.26562,0 3.4375,1.09375 1.21093,1.05469 1.21093,2.73437 0,2.14844 -1.71875,3.00782 -1.67968,0.85937 -4.84375,0.85937 h -1.99218 v 19.60938 q 0,2.5 0.15625,3.86718 0.19531,1.32813 0.9375,2.1875 0.78125,0.82032 2.5,0.82032 0.9375,0 2.53906,-0.3125 1.60156,-0.35157 2.5,-0.35157 1.28906,0 2.30469,1.05469 1.05468,1.01563 1.05468,2.53906 0,2.57813 -2.8125,3.94532 -2.8125,1.36718 -8.08593,1.36718 -5,0 -7.57813,-1.67968 -2.57812,-1.67969 -3.39844,-4.64844 -0.78125,-2.96875 -0.78125,-7.92969 v -20.46875 h -1.40625 q -2.30468,0 -3.51562,-1.09375 -1.21094,-1.09375 -1.21094,-2.77344 0,-1.67968 1.25,-2.73437 1.28906,-1.09375 3.71094,-1.09375 z"
       style="font-style:normal;font-variant:normal;font-weight:normal;font-stretch:normal;font-size:80px;line-height:150%;font-family:'Arial Rounded MT Bold';-inkscape-font-specification:'Arial Rounded MT Bold, Normal';text-align:start;letter-spacing:3.27000000000000002px;word-spacing:75px;writing-mode:lr-tb;text-anchor:start;fill:#16a085;fill-opacity:1;stroke:none;stroke-width:1px;stroke-linecap:butt;stroke-linejoin:miter;stroke-opacity:1"
       id="path56" />
    <path
       d="m 842.94395,755.20089 q -3.86719,3.00781 -7.5,4.53125 -3.59375,1.48437 -8.08594,1.48437 -4.10156,0 -7.22656,-1.60156 -3.08594,-1.64062 -4.76563,-4.41406 -1.67969,-2.77344 -1.67969,-6.01563 0,-4.375 2.77344,-7.46093 2.77344,-3.08594 7.61719,-4.14063 1.01562,-0.23437 5.03906,-1.05469 4.02344,-0.82031 6.875,-1.48437 2.89063,-0.70313 6.25,-1.67969 -0.19531,-4.21875 -1.71875,-6.17187 -1.48437,-1.99219 -6.21094,-1.99219 -4.0625,0 -6.13281,1.13281 -2.03125,1.13281 -3.51562,3.39844 -1.44532,2.26562 -2.07032,3.00781 -0.58593,0.70313 -2.57812,0.70313 -1.79688,0 -3.125,-1.13282 -1.28906,-1.17187 -1.28906,-2.96875 0,-2.8125 1.99218,-5.46875 1.99219,-2.65625 6.21094,-4.375 4.21875,-1.71875 10.50781,-1.71875 7.03125,0 11.05469,1.67969 4.02344,1.64063 5.66406,5.23438 1.67969,3.59375 1.67969,9.53125 0,3.75 -0.0391,6.36718 0,2.61719 -0.0391,5.82032 0,3.00781 0.97656,6.28906 1.01562,3.24219 1.01562,4.17969 0,1.64062 -1.5625,3.00781 -1.52343,1.32812 -3.47656,1.32812 -1.64062,0 -3.24219,-1.52343 -1.60156,-1.5625 -3.39843,-4.49219 z m -0.70313,-15.42969 q -2.34375,0.85938 -6.83594,1.83594 -4.45312,0.9375 -6.17187,1.40625 -1.71875,0.42969 -3.28125,1.75781 -1.5625,1.28906 -1.5625,3.63281 0,2.42188 1.83594,4.14063 1.83593,1.67969 4.80468,1.67969 3.16407,0 5.82032,-1.36719 2.69531,-1.40625 3.94531,-3.59375 1.44531,-2.42188 1.44531,-7.96875 z"
       style="font-style:normal;font-variant:normal;font-weight:normal;font-stretch:normal;font-size:80px;line-height:150%;font-family:'Arial Rounded MT Bold';-inkscape-font-specification:'Arial Rounded MT Bold, Normal';text-align:start;letter-spacing:3.27000000000000002px;word-spacing:75px;writing-mode:lr-tb;text-anchor:start;fill:#16a085;fill-opacity:1;stroke:none;stroke-width:1px;stroke-linecap:butt;stroke-linejoin:miter;stroke-opacity:1"
       id="path58" />
    <path
       d="m 866.76078,754.73214 v -46.25 q 0,-3.20313 1.40625,-4.84375 1.44531,-1.64063 3.86719,-1.64063 2.42187,0 3.90625,1.64063 1.48437,1.60156 1.48437,4.84375 v 46.25 q 0,3.24219 -1.52343,4.88281 -1.48438,1.60156 -3.86719,1.60156 -2.34375,0 -3.82813,-1.67968 -1.44531,-1.67969 -1.44531,-4.80469 z"
       style="font-style:normal;font-variant:normal;font-weight:normal;font-stretch:normal;font-size:80px;line-height:150%;font-family:'Arial Rounded MT Bold';-inkscape-font-specification:'Arial Rounded MT Bold, Normal';text-align:start;letter-spacing:3.27000000000000002px;word-spacing:75px;writing-mode:lr-tb;text-anchor:start;fill:#16a085;fill-opacity:1;stroke:none;stroke-width:1px;stroke-linecap:butt;stroke-linejoin:miter;stroke-opacity:1"
       id="path60" />
    <g
       style="fill:#16a085;fill-opacity:1;stroke:none"
       transform="matrix(0.27752948,0,0,0.27752948,478.94922,586.58345)"
       id="layer1-2">
      <path
         id="rect4203"
         style="fill:#16a085;fill-opacity:1;stroke:none;stroke-width:1.20763;stroke-opacity:1"
         d="m 334.05859,332.28711 c -2.5836,0 -4.66211,2.07851 -4.66211,4.66211 v 47.58594 c 0,0.36911 0.0525,0.7244 0.13282,1.06836 v 0.625 c 0,1.82203 1.46704,3.28906 3.28906,3.28906 h 33.56055 c 1.82202,0 3.28711,-1.46703 3.28711,-3.28906 v -3.75586 c 0,-1.82202 -1.46509,-3.28907 -3.28711,-3.28907 h -26.83399 v -42.23437 c 0,-2.5836 -2.07851,-4.66211 -4.66211,-4.66211 z m 64.00127,52.01251 c 0,35.11932 -28.46984,63.58916 -63.58916,63.58916 -35.11932,0 -63.58915,-28.46984 -63.58915,-63.58916 0,-35.11932 28.46983,-63.58916 63.58915,-63.58916 35.11932,0 63.58916,28.46984 63.58916,63.58916 z M 334.40234,193.58789 v 0.56055 c -0.67992,2.80909 -5.74518,22.55194 -15.51367,29.31836 -10.51707,7.28495 -12.4787,7.54077 -27.92773,17.96093 -15.44902,10.42016 -13.90355,22.47902 -19.2461,25.19532 -5.34255,2.71629 -15.28711,3.90039 -15.28711,3.90039 l 5.32227,12.07031 -10.62109,27.77344 h -6.01953 l 6,10.92383 v 108.92382 c -1.55399,38.79887 -17.68023,60.27774 -26.80469,69.74024 -21.03294,21.99395 -23.70313,48.14648 -23.70313,48.14648 v 79.88867 h 68.50782 v -42.63085 c 0.28419,-71.09739 129.30109,-75.90595 130.72264,0 v 42.63085 h 68.50781 v -79.88867 c 0,0 -2.67213,-26.15253 -23.70507,-48.14648 -9.12446,-9.4625 -25.24875,-30.94137 -26.80274,-69.74024 V 321.29102 l 6,-10.92383 h -6.01953 l -10.62109,-27.77344 5.32226,-12.07031 c 0,0 -9.94456,-1.1841 -15.28711,-3.90039 -5.34255,-2.7163 -3.79707,-14.77516 -19.24609,-25.19532 -15.44903,-10.42016 -17.41067,-10.67598 -27.92774,-17.96093 -9.76848,-6.76642 -14.83374,-26.50927 -15.51367,-29.31836 v -0.56055 c 0,0 -0.0554,0.22413 -0.0684,0.2793 -0.0129,-0.0552 -0.0684,-0.2793 -0.0684,-0.2793 z" />
    </g>
  </g>
</svg>
