<?xml version="1.0" encoding="UTF-8" standalone="no"?>
<svg
   xmlns:dc="http://purl.org/dc/elements/1.1/"
   xmlns:cc="http://creativecommons.org/ns#"
   xmlns:rdf="http://www.w3.org/1999/02/22-rdf-syntax-ns#"
   xmlns:svg="http://www.w3.org/2000/svg"
   xmlns="http://www.w3.org/2000/svg"
   xmlns:xlink="http://www.w3.org/1999/xlink"
   width="149.836mm"
   height="149.836mm"
   viewBox="0 0 530.91496 530.91495"
   id="svg2"
   version="1.1">
  <defs
     id="defs4">
    <linearGradient
       id="linearGradient5537">
      <stop
         style="stop-color:#16a085;stop-opacity:1;"
         offset="0"
         id="stop5539" />
      <stop
         style="stop-color:#0c8874;stop-opacity:1"
         offset="1"
         id="stop5541" />
    </linearGradient>
    <linearGradient
       xlink:href="#linearGradient5537"
       id="linearGradient5543"
       x1="318.20032"
       y1="350.78781"
       x2="316.2832"
       y2="624.90039"
       gradientUnits="userSpaceOnUse" />
  </defs>
  <metadata
     id="metadata7">
    <rdf:RDF>
      <cc:Work
         rdf:about="">
        <dc:format>image/svg+xml</dc:format>
        <dc:type
           rdf:resource="http://purl.org/dc/dcmitype/StillImage" />
        <dc:title></dc:title>
      </cc:Work>
    </rdf:RDF>
  </metadata>
  <g
     id="layer1"
     transform="translate(-52.74271,-142.83646)">
    <path
       style="opacity:1;fill:url(#linearGradient5543);fill-opacity:1;stroke:none;stroke-opacity:1"
       d="M 318.20117,178.26953 A 230.02452,230.02452 0 0 0 88.175781,408.29297 230.02452,230.02452 0 0 0 184.33203,595.10938 l 0,-36.25391 c 0,0 2.67019,-26.15254 23.70313,-48.14649 9.12446,-9.4625 25.25069,-30.94136 26.80468,-69.74023 l 0,-108.92383 -6,-10.92383 6.01954,0 10.62109,-27.77343 -5.32227,-12.07032 c 0,0 9.94456,-1.1841 15.28711,-3.90039 5.34255,-2.7163 3.79708,-14.77515 19.2461,-25.19531 15.44903,-10.42016 17.41066,-10.67599 27.92773,-17.96094 9.76849,-6.76642 14.83375,-26.50927 15.51367,-29.31836 l 0,-0.56054 c 0,0 0.0555,0.22409 0.0684,0.27929 0.013,-0.0552 0.0684,-0.27929 0.0684,-0.27929 l 0,0.56054 c 0.67993,2.80909 5.74519,22.55194 15.51367,29.31836 10.51707,7.28495 12.47871,7.54078 27.92774,17.96094 15.44902,10.42016 13.90354,22.47901 19.24609,25.19531 5.34255,2.71629 15.28711,3.90039 15.28711,3.90039 l -5.32226,12.07032 10.62109,27.77343 6.01953,0 -6,10.92383 0,108.92383 c 1.55399,38.79887 17.67827,60.27773 26.80273,69.74023 21.03294,21.99395 23.70508,48.14649 23.70508,48.14649 l 0,36.14062 A 230.02452,230.02452 0 0 0 548.22461,408.29297 230.02452,230.02452 0 0 0 318.20117,178.26953 Z m 0,153.19336 c -35.11932,0 -63.58984,28.47052 -63.58984,63.58984 0,35.11932 28.47052,63.58985 63.58984,63.58985 35.11932,0 63.58789,-28.47053 63.58789,-63.58985 0,-35.11932 -28.46857,-63.58984 -63.58789,-63.58984 z m -0.41211,11.57813 0.82422,0 c 2.5836,0 4.66211,2.07851 4.66211,4.6621 l 0,42.23438 26.83399,0 c 1.82201,0 3.2871,1.46704 3.2871,3.28906 l 0,3.75586 c 0,1.82203 -1.46508,3.28906 -3.2871,3.28906 l -33.56055,0 c -1.82202,0 -3.28906,-1.46703 -3.28906,-3.28906 l 0,-0.625 c -0.0803,-0.34396 -0.13282,-0.69925 -0.13282,-1.06836 l 0,-47.58594 c 0,-2.58359 2.07851,-4.6621 4.66211,-4.6621 z m 3.02735,197.94336 c -33.45895,-0.56632 -67.83003,18.46931 -67.97657,55.1289 l 0,32.59961 a 230.02452,230.02452 0 0 0 65.36133,9.60547 230.02452,230.02452 0 0 0 65.36133,-9.65625 l 0,-32.54883 c -0.68856,-36.76694 -31.31496,-54.59691 -62.74609,-55.1289 z"
       id="path5502" />
  </g>
</svg>
